<svg width="263" height="87" viewBox="0 0 327 61" fill="none" xmlns="http://www.w3.org/2000/svg">
<path d="M12.25 2.5H19.6875L25.2188 35.8125L42.3125 2.5H50.375L26.5625 48H20.3125L12.25 2.5ZM7.90625 2.5H15.6562L11.375 35.4688L9.15625 48H0.03125L7.90625 2.5ZM46.625 2.5H54.4062L46.5312 48H37.3438L39.6875 34.6875L46.625 2.5ZM55.4062 31.625L55.5 30.9688C55.75 28.5729 56.3229 26.3229 57.2188 24.2188C58.1354 22.0938 59.3438 20.2292 60.8438 18.625C62.3646 17 64.1458 15.7396 66.1875 14.8438C68.25 13.9271 70.5625 13.5 73.125 13.5625C75.5625 13.6042 77.6667 14.0938 79.4375 15.0312C81.2083 15.9688 82.6562 17.2292 83.7812 18.8125C84.9271 20.3958 85.7292 22.2083 86.1875 24.25C86.6667 26.2917 86.8021 28.4479 86.5938 30.7188L86.5312 31.4062C86.2604 33.7812 85.6562 36.0208 84.7188 38.125C83.8021 40.2083 82.5833 42.0521 81.0625 43.6562C79.5625 45.2396 77.7812 46.4792 75.7188 47.375C73.6562 48.2708 71.3646 48.6875 68.8438 48.625C66.4479 48.5833 64.3542 48.1042 62.5625 47.1875C60.7708 46.25 59.3125 45 58.1875 43.4375C57.0625 41.8542 56.2708 40.0521 55.8125 38.0312C55.3542 36.0104 55.2188 33.875 55.4062 31.625ZM64.2812 30.9688L64.2188 31.6562C64.1146 32.6562 64.0833 33.7292 64.125 34.875C64.1667 36 64.3438 37.0729 64.6562 38.0938C64.9896 39.1146 65.5312 39.9479 66.2812 40.5938C67.0312 41.2396 68.0625 41.5833 69.375 41.625C70.7708 41.6667 71.9688 41.3854 72.9688 40.7812C73.9688 40.1771 74.7917 39.3646 75.4375 38.3438C76.0833 37.3021 76.5938 36.1771 76.9688 34.9688C77.3438 33.7396 77.5938 32.5417 77.7188 31.375L77.7812 30.7188C77.8646 29.7188 77.8854 28.6458 77.8438 27.5C77.8229 26.3333 77.6458 25.2396 77.3125 24.2188C76.9792 23.1771 76.4375 22.3229 75.6875 21.6562C74.9375 20.9896 73.9062 20.6354 72.5938 20.5938C71.1979 20.5312 70 20.8229 69 21.4688C68 22.0938 67.1771 22.9271 66.5312 23.9688C65.8854 25.0104 65.375 26.1458 65 27.375C64.6458 28.6042 64.4062 29.8021 64.2812 30.9688ZM97.25 0H106.062L98.9688 40.75L96.875 48H88.9062L97.25 0ZM121.438 30.5625L121.375 31.25C121.104 33.3333 120.625 35.4167 119.938 37.5C119.271 39.5833 118.333 41.4792 117.125 43.1875C115.938 44.875 114.448 46.2292 112.656 47.25C110.885 48.25 108.781 48.7188 106.344 48.6562C104.198 48.5938 102.427 48.0312 101.031 46.9688C99.6354 45.8854 98.5521 44.5104 97.7812 42.8438C97.0104 41.1562 96.4896 39.3542 96.2188 37.4375C95.9479 35.5 95.8438 33.6458 95.9062 31.875L96.0625 30.4062C96.3958 28.5312 96.9479 26.5938 97.7188 24.5938C98.4896 22.5938 99.4792 20.75 100.688 19.0625C101.917 17.375 103.375 16.0208 105.062 15C106.771 13.9583 108.729 13.4688 110.938 13.5312C113.271 13.5729 115.167 14.1146 116.625 15.1562C118.104 16.1979 119.229 17.5625 120 19.25C120.771 20.9167 121.25 22.7396 121.438 24.7188C121.646 26.6979 121.646 28.6458 121.438 30.5625ZM112.594 31.2188L112.625 30.5312C112.729 29.5938 112.792 28.5625 112.812 27.4375C112.854 26.3125 112.76 25.2396 112.531 24.2188C112.302 23.1979 111.854 22.3542 111.188 21.6875C110.521 21 109.542 20.6354 108.25 20.5938C106.979 20.5312 105.865 20.7292 104.906 21.1875C103.969 21.6458 103.167 22.2812 102.5 23.0938C101.833 23.9062 101.292 24.8333 100.875 25.875C100.458 26.8958 100.156 27.9583 99.9688 29.0625L99.375 33.1875C99.2917 34.5 99.3646 35.7917 99.5938 37.0625C99.8229 38.3333 100.333 39.3958 101.125 40.25C101.938 41.0833 103.125 41.5208 104.688 41.5625C106.125 41.625 107.323 41.3438 108.281 40.7188C109.24 40.0729 110.01 39.2292 110.594 38.1875C111.177 37.1458 111.615 36.0104 111.906 34.7812C112.219 33.5312 112.448 32.3438 112.594 31.2188ZM174.344 21.0312L173.062 28.3438H149.969L151.25 21.0312H174.344ZM157.219 2.5L149.312 48H140.156L148.031 2.5H157.219ZM184.031 2.5L176.125 48H167.031L174.906 2.5H184.031ZM199.375 48.625C197.062 48.5833 194.979 48.1458 193.125 47.3125C191.271 46.4583 189.719 45.2917 188.469 43.8125C187.24 42.3333 186.333 40.6146 185.75 38.6562C185.167 36.6979 184.958 34.5938 185.125 32.3438L185.25 31.0625C185.5 28.7083 186.073 26.4688 186.969 24.3438C187.865 22.2188 189.062 20.3438 190.562 18.7188C192.062 17.0729 193.833 15.7917 195.875 14.875C197.938 13.9375 200.229 13.5 202.75 13.5625C205.104 13.6042 207.115 14.0833 208.781 15C210.448 15.9167 211.792 17.1458 212.812 18.6875C213.833 20.2292 214.531 21.9896 214.906 23.9688C215.281 25.9271 215.354 27.9792 215.125 30.125L214.625 33.875H188.5L189.469 27.875L206.719 27.9062L206.875 27.125C207.042 25.9792 206.99 24.9167 206.719 23.9375C206.448 22.9375 205.938 22.1354 205.188 21.5312C204.438 20.9271 203.438 20.6042 202.188 20.5625C200.75 20.5208 199.542 20.8229 198.562 21.4688C197.583 22.1146 196.781 22.9688 196.156 24.0312C195.531 25.0938 195.052 26.25 194.719 27.5C194.385 28.7292 194.146 29.9167 194 31.0625L193.875 32.3125C193.771 33.4167 193.802 34.5208 193.969 35.625C194.135 36.7083 194.458 37.6875 194.938 38.5625C195.438 39.4375 196.115 40.1458 196.969 40.6875C197.844 41.2292 198.938 41.5208 200.25 41.5625C201.917 41.6042 203.448 41.2812 204.844 40.5938C206.26 39.8854 207.531 38.9479 208.656 37.7812L212.594 42.5312C211.656 43.9479 210.458 45.1146 209 46.0312C207.562 46.9271 206.01 47.5833 204.344 48C202.677 48.4375 201.021 48.6458 199.375 48.625ZM234.656 0L226.344 48H217.531L225.844 0H234.656ZM246.938 21.1875L240.031 61H231.219L239.344 14.1875H247.469L246.938 21.1875ZM266 30.5312L265.906 31.1875C265.656 33.2292 265.177 35.2917 264.469 37.375C263.781 39.4583 262.833 41.3646 261.625 43.0938C260.417 44.8021 258.927 46.1771 257.156 47.2188C255.385 48.2396 253.302 48.7188 250.906 48.6562C248.802 48.5938 247.052 48.0417 245.656 47C244.26 45.9583 243.167 44.625 242.375 43C241.583 41.3542 241.031 39.5833 240.719 37.6875C240.406 35.7917 240.281 33.9792 240.344 32.25L240.562 30.5C240.875 28.6042 241.417 26.6562 242.188 24.6562C242.958 22.6354 243.958 20.7812 245.188 19.0938C246.417 17.3854 247.885 16.0208 249.594 15C251.302 13.9583 253.271 13.4688 255.5 13.5312C257.812 13.5938 259.698 14.1458 261.156 15.1875C262.635 16.2292 263.76 17.5833 264.531 19.25C265.302 20.9167 265.781 22.7396 265.969 24.7188C266.177 26.6771 266.188 28.6146 266 30.5312ZM257.125 31.1562L257.219 30.5C257.302 29.5833 257.344 28.5729 257.344 27.4688C257.344 26.3438 257.219 25.2708 256.969 24.25C256.719 23.2292 256.26 22.375 255.594 21.6875C254.927 21 253.969 20.6354 252.719 20.5938C251.448 20.5312 250.333 20.7292 249.375 21.1875C248.417 21.6458 247.604 22.2917 246.938 23.125C246.292 23.9375 245.76 24.8646 245.344 25.9062C244.927 26.9479 244.625 28.0208 244.438 29.125L243.812 33.5C243.708 34.7708 243.792 36.0312 244.062 37.2812C244.333 38.5104 244.865 39.5312 245.656 40.3438C246.469 41.1562 247.635 41.5833 249.156 41.625C250.531 41.6458 251.698 41.3333 252.656 40.6875C253.615 40.0417 254.396 39.1875 255 38.125C255.625 37.0417 256.104 35.8854 256.438 34.6562C256.771 33.4271 257 32.2604 257.125 31.1562ZM284.312 48.625C282 48.5833 279.917 48.1458 278.062 47.3125C276.208 46.4583 274.656 45.2917 273.406 43.8125C272.177 42.3333 271.271 40.6146 270.688 38.6562C270.104 36.6979 269.896 34.5938 270.062 32.3438L270.188 31.0625C270.438 28.7083 271.01 26.4688 271.906 24.3438C272.802 22.2188 274 20.3438 275.5 18.7188C277 17.0729 278.771 15.7917 280.812 14.875C282.875 13.9375 285.167 13.5 287.688 13.5625C290.042 13.6042 292.052 14.0833 293.719 15C295.385 15.9167 296.729 17.1458 297.75 18.6875C298.771 20.2292 299.469 21.9896 299.844 23.9688C300.219 25.9271 300.292 27.9792 300.062 30.125L299.562 33.875H273.438L274.406 27.875L291.656 27.9062L291.812 27.125C291.979 25.9792 291.927 24.9167 291.656 23.9375C291.385 22.9375 290.875 22.1354 290.125 21.5312C289.375 20.9271 288.375 20.6042 287.125 20.5625C285.688 20.5208 284.479 20.8229 283.5 21.4688C282.521 22.1146 281.719 22.9688 281.094 24.0312C280.469 25.0938 279.99 26.25 279.656 27.5C279.323 28.7292 279.083 29.9167 278.938 31.0625L278.812 32.3125C278.708 33.4167 278.74 34.5208 278.906 35.625C279.073 36.7083 279.396 37.6875 279.875 38.5625C280.375 39.4375 281.052 40.1458 281.906 40.6875C282.781 41.2292 283.875 41.5208 285.188 41.5625C286.854 41.6042 288.385 41.2812 289.781 40.5938C291.198 39.8854 292.469 38.9479 293.594 37.7812L297.531 42.5312C296.594 43.9479 295.396 45.1146 293.938 46.0312C292.5 46.9271 290.948 47.5833 289.281 48C287.615 48.4375 285.958 48.6458 284.312 48.625ZM315.281 22.0312L310.781 48H302L307.875 14.1875H316.125L315.281 22.0312ZM326.312 13.9062L325.219 22.3125C324.719 22.2292 324.208 22.1562 323.688 22.0938C323.188 22.0312 322.677 21.9896 322.156 21.9688C320.948 21.9479 319.854 22.1042 318.875 22.4375C317.896 22.7708 317.042 23.2604 316.312 23.9062C315.604 24.5312 315 25.3021 314.5 26.2188C314.021 27.1354 313.656 28.1667 313.406 29.3125L311.688 28.75C311.896 27.1458 312.24 25.4583 312.719 23.6875C313.219 21.8958 313.906 20.2292 314.781 18.6875C315.677 17.125 316.812 15.8646 318.188 14.9062C319.583 13.9271 321.281 13.4479 323.281 13.4688C323.802 13.4688 324.302 13.5104 324.781 13.5938C325.281 13.6771 325.792 13.7812 326.312 13.9062Z" fill="#4754F8"/>
</svg>
